<svg xmlns="http://www.w3.org/2000/svg" width="28.316" height="28.316" viewBox="0 0 28.316 28.316">
  <g id="Gruppe_1" data-name="Gruppe 1" transform="translate(-916.842 -273.842)">
    <g id="Ellipse_1" data-name="Ellipse 1" transform="translate(924 281)" fill="none" stroke="#737373" stroke-width="1">
      <circle cx="7" cy="7" r="7" stroke="none"/>
      <circle cx="7" cy="7" r="6.5" fill="none"/>
    </g>
    <g id="Pfad_1" data-name="Pfad 1" transform="translate(916.842 273.842)" fill="none">
      <path d="M14.158,0A14.158,14.158,0,1,1,0,14.158,14.158,14.158,0,0,1,14.158,0Z" stroke="none"/>
      <path d="M 14.15777587890625 1.999996185302734 C 10.91031646728516 1.999996185302734 7.857234954833984 3.264625549316406 5.56092643737793 5.56092643737793 C 3.264625549316406 7.857234954833984 1.999996185302734 10.91031646728516 1.999996185302734 14.15777587890625 C 1.999996185302734 17.40523529052734 3.264625549316406 20.45831680297852 5.56092643737793 22.75462532043457 C 7.857234954833984 25.05092620849609 10.91031646728516 26.31555557250977 14.15777587890625 26.31555557250977 C 17.40523529052734 26.31555557250977 20.45831680297852 25.05092620849609 22.75462532043457 22.75462532043457 C 25.05092620849609 20.45831680297852 26.31555557250977 17.40523529052734 26.31555557250977 14.15777587890625 C 26.31555557250977 10.91031646728516 25.05092620849609 7.857234954833984 22.75462532043457 5.56092643737793 C 20.45831680297852 3.264625549316406 17.40523529052734 1.999996185302734 14.15777587890625 1.999996185302734 M 14.15777587890625 -3.814697265625e-06 C 21.97689628601074 -3.814697265625e-06 28.31555557250977 6.338655471801758 28.31555557250977 14.15777587890625 C 28.31555557250977 21.97689628601074 21.97689628601074 28.31555557250977 14.15777587890625 28.31555557250977 C 6.338655471801758 28.31555557250977 -3.814697265625e-06 21.97689628601074 -3.814697265625e-06 14.15777587890625 C -3.814697265625e-06 6.338655471801758 6.338655471801758 -3.814697265625e-06 14.15777587890625 -3.814697265625e-06 Z" stroke="none" fill="#e8e8e8"/>
    </g>
  </g>
</svg>
